<svg xmlns="http://www.w3.org/2000/svg" width="512" height="512" viewBox="0 0 64 64">
    <path d="M61 17h-1v-4a1 1 0 0 0-1.13-.99l-.87.11V8a.985.985 0 0 0-.39-.79 1.015 1.015 0 0 0-.86-.18l-36.68 9.41 3.73-6.46a5.067 5.067 0 0 0 .66-2.49 5 5 0 0 0-9.33-2.51L2.68 26.56A4.973 4.973 0 0 0 2 29.07v12.37a4.924 4.924 0 0 0 .19 1.37L5.38 54H5a1 1 0 0 0-1 1v6a1 1 0 0 0 1 1h22a1 1 0 0 0 1-1v-6a1 1 0 0 0-1-1v-2.51a7 7 0 0 0-2.05-4.96L23.41 45H61a1 1 0 0 0 1-1V18a1 1 0 0 0-1-1zm-3-2.86V17H36.27zm-2-4.85v3.1l-24.81 3.26zM26 60H6v-4h20zm-5.92-15.62a.914.914 0 0 0 .22.32l-.01.01 3.24 3.24A4.945 4.945 0 0 1 25 51.49V54H7.46L4.11 42.27a3.318 3.318 0 0 1-.11-.83V29.07a2.916 2.916 0 0 1 .41-1.5L16.87 5.98a2.975 2.975 0 0 1 4.09-1.09 2.95 2.95 0 0 1 1.5 2.6 3 3 0 0 1-.4 1.49L17.43 17H15a1 1 0 0 0-1 1v21a1.016 1.016 0 0 0 .62.93 1 1 0 0 0 1.1-.24l8.82-9.12a3.007 3.007 0 0 1 5.07 1.55c.02.2.04.4.05.56a3.065 3.065 0 0 1-.88 2.12l-8.49 8.49a1 1 0 0 0-.21 1.09zM60 43H23.41l6.35-6.34A9.9 9.9 0 0 0 38 41a10 10 0 1 0-9.54-12.97 5.033 5.033 0 0 0-5.35 1.14L16 36.53V19h44zM31.58 31.8a5.026 5.026 0 0 0-1.36-2.62 8.023 8.023 0 1 1 .86 5.79 5.377 5.377 0 0 0 .58-2.32c-.01-.27-.04-.53-.08-.85z"/>
    <path d="M38 34a1 1 0 01-1-1h-2a3 3 0 002 2.816V37h2v-1.184A2.993 2.993 0 0038 30a1 1 0 111-1h2a3 3 0 00-2-2.816V25h-2v1.184A2.993 2.993 0 0038 32a1 1 0 010 2zM20 24.873A4.014 4.014 0 0022.873 22H25v-2h-3a1 1 0 00-1 1 2 2 0 01-2 2 1 1 0 00-1 1v3h2zM56 25.873V28h2v-3a1 1 0 00-1-1 2 2 0 01-2-2 1 1 0 00-1-1h-3v2h2.127A4.014 4.014 0 0056 25.873zM55 40a2 2 0 012-2 1 1 0 001-1v-3h-2v2.127A4.014 4.014 0 0053.127 39H51v2h3a1 1 0 001-1z"/>
</svg>
