<svg xmlns="http://www.w3.org/2000/svg" enable-background="new 0 0 480.049 480.049" viewBox="0 0 480.049 480.049">
    <path d="M464.022 16.051H480.022V32.051H464.022zM448.022.052H464.022V16.052H448.022zM432.022 16.051H448.022V32.051H432.022zM448.022 32.051H464.022V48.051H448.022zM400.022 16.051H416.022V32.051H400.022zM384.022 176.051H400.022V192.051H384.022zM416.022 176.051H432.022V192.051H416.022zM400.022 160.051H416.022V176.051H400.022zM400.022 192.051H416.022V208.051H400.022zM88.032 152.051H104.032V168.051H88.032zM72.032 136.051H88.032V152.051H72.032zM56.022 152.051H72.02199999999999V168.051H56.022zM72.032 168.051H88.032V184.051H72.032zM24.022 152.051H40.022V168.051H24.022zM.027 48.051H16.027V64.051H.027zM32.022 48.051H48.022V64.051H32.022zM16.022 32.051H32.022V48.051H16.022zM16.022 64.051H32.022V80.051H16.022zM112.032.052H128.03199999999998V16.052H112.032zM430.644 375.973c-3.401-9.565-12.466-15.946-22.618-15.922h-19.352l-28.648-50.128v-85.872c0-17.673-14.327-32-32-32v-104c1.623-46.978-35.144-86.377-82.122-88-1.959-.068-3.919-.068-5.878 0-55.008 0-86.4 45.184-88 87.696 0 .104.056.2.056.304h-.056v104c-17.673 0-32 14.327-32 32v85.872l-28.648 50.128H72.027c-13.224-.027-23.966 10.67-23.994 23.894-.021 10.149 6.359 19.209 15.922 22.61-11.555 13.061-10.334 33.017 2.728 44.572 4.72 4.176 10.583 6.844 16.832 7.66l155.432 21.192c.72.094 1.448.094 2.168 0l155.432-21.192c17.292-2.259 29.479-18.108 27.22-35.4-.816-6.249-3.484-12.112-7.66-16.832 12.459-4.43 18.968-18.122 14.537-30.582zM240.027 16.052c38-1.764 70.236 27.611 72 65.612.099 2.128.099 4.26 0 6.388h-16c-22.08-.026-39.974-17.92-40-40-.001-4.418-3.583-7.999-8.002-7.998-2.121 0-4.154.843-5.654 2.342-19.833 19.909-45.621 32.802-73.448 36.72 4.399-35.948 34.887-62.989 71.104-63.064zm-16 184v-34.216c5.215 1.43 10.593 2.175 16 2.216 5.41-.046 10.79-.808 16-2.264v34.264c0 4.418 3.582 8 8 8h16v10.232l-40 13.336-40-13.336v-10.232h16c4.418 0 8-3.582 8-8zM177.563 93.804c23.753-4.394 46.029-14.66 64.8-29.864 7.065 23.756 28.88 40.062 53.664 40.112h3.488c-10 26.84-35.36 48-59.488 48-27.784 0-55.848-26.928-62.464-58.248zm94.464 98.248v-32.68c17.662-9.94 31.679-25.272 40-43.752v76.432h-40zm-104-76.408c8.271 18.519 22.3 33.872 40 43.776v32.632h-40v-76.408zm16 92.408v16c.003 3.442 2.206 6.496 5.472 7.584v.008l48 16c1.643.552 3.421.552 5.064 0l48-16c3.265-1.091 5.466-4.149 5.464-7.592v-16h21.752l-36 144h-83.504l-36-144h21.752zm11.68 160h88.64l32.144 37.496-76.464 10.432-76.464-10.4 32.144-37.528zm-50.976 34.928l-14.76-2.008 50.12-55.696 3.2 12.712-38.56 44.992zm152.096-44.992l3.2-12.712 50.12 55.696-14.792 2.008-38.528-44.992zm-232.8 26.064c0-4.418 3.582-8 8-8h24c2.864.006 5.512-1.52 6.944-4l32-56c.697-1.218 1.061-2.597 1.056-4v-88c0-6.535 3.975-12.414 10.04-14.848l14.672 58.68 14.664 58.68-58.936 65.488h-44.44c-4.419 0-8-3.582-8-8zm176 79.928L85.675 442.924c-8.638-1.141-14.715-9.068-13.574-17.706 1.04-7.873 7.769-13.745 15.71-13.71.712 0 1.423.051 2.128.152l56.888 7.76 90.4 12.328 42.824 26.768-40.024 5.464zm154.352-21.056l-89.552 12.216-41.832-26.144 70.176-9.6 56.88-7.76c8.633-1.211 16.612 4.806 17.823 13.439.103.734.154 1.475.153 2.217-.028 7.88-5.844 14.541-13.648 15.632zm13.648-50.872h-44.44l-58.944-65.496 14.664-58.68 14.672-58.68c6.071 2.433 10.05 8.316 10.048 14.856v88c-.005 1.403.359 2.782 1.056 4l32 56c1.432 2.48 4.08 4.006 6.944 4h24c4.418 0 8 3.582 8 8s-3.582 8-8 8z"/>
</svg>
